<svg width="1081" height="363" viewBox="0 0 1081 363" fill="none" xmlns="http://www.w3.org/2000/svg">
<path d="M131.676 141C131.108 133.898 128.445 128.358 123.686 124.381C118.999 120.403 111.861 118.415 102.273 118.415C96.1648 118.415 91.1577 119.161 87.2514 120.652C83.4162 122.072 80.5753 124.026 78.7287 126.511C76.8821 128.997 75.9233 131.838 75.8523 135.034C75.7102 137.662 76.1719 140.041 77.2372 142.172C78.3736 144.232 80.1491 146.114 82.5639 147.818C84.9787 149.452 88.0682 150.943 91.8324 152.293C95.5966 153.642 100.071 154.849 105.256 155.915L123.153 159.75C135.227 162.307 145.561 165.68 154.155 169.871C162.749 174.061 169.78 178.997 175.249 184.679C180.717 190.29 184.73 196.611 187.287 203.642C189.915 210.673 191.264 218.344 191.335 226.653C191.264 241 187.678 253.145 180.575 263.088C173.473 273.031 163.317 280.595 150.107 285.78C136.967 290.964 121.165 293.557 102.699 293.557C83.7358 293.557 67.1875 290.751 53.054 285.141C38.9915 279.53 28.054 270.901 20.2415 259.253C12.5 247.534 8.59375 232.548 8.52273 214.295H64.7727C65.1278 220.972 66.7969 226.582 69.7798 231.128C72.7628 235.673 76.9531 239.118 82.3509 241.462C87.8196 243.805 94.3182 244.977 101.847 244.977C108.168 244.977 113.459 244.196 117.72 242.634C121.982 241.071 125.213 238.905 127.415 236.135C129.616 233.365 130.753 230.205 130.824 226.653C130.753 223.315 129.652 220.403 127.521 217.918C125.462 215.361 122.053 213.088 117.294 211.099C112.536 209.04 106.108 207.122 98.0114 205.347L76.2784 200.659C56.9602 196.469 41.7259 189.473 30.5753 179.672C19.4957 169.8 13.9915 156.341 14.0625 139.295C13.9915 125.446 17.6847 113.337 25.142 102.967C32.6705 92.527 43.0753 84.3949 56.3565 78.571C69.7088 72.7472 85.0142 69.8352 102.273 69.8352C119.886 69.8352 135.121 72.7827 147.976 78.6776C160.831 84.5724 170.739 92.8821 177.699 103.607C184.73 114.26 188.281 126.724 188.352 141H131.676ZM195.82 291V120.091H269.592C282.276 120.091 293.375 122.594 302.889 127.602C312.402 132.609 319.802 139.646 325.087 148.715C330.372 157.783 333.015 168.382 333.015 180.51C333.015 192.75 330.289 203.348 324.837 212.305C319.44 221.262 311.846 228.161 302.054 233.001C292.318 237.841 280.941 240.261 267.923 240.261H223.86V204.21H258.576C264.028 204.21 268.674 203.264 272.512 201.373C276.407 199.426 279.383 196.672 281.442 193.111C283.556 189.551 284.613 185.35 284.613 180.51C284.613 175.614 283.556 171.442 281.442 167.992C279.383 164.487 276.407 161.817 272.512 159.981C268.674 158.089 264.028 157.143 258.576 157.143H242.219V291H195.82ZM341.336 291V72.8182H400.569V158.045H478.978V72.8182H538.211V291H478.978V205.773H400.569V291H341.336ZM551.336 291V72.8182H708.58V120.545H610.569V158.045H700.484V205.773H610.569V243.273H708.154V291H551.336ZM722.957 291V72.8182H817.133C833.326 72.8182 847.495 75.7656 859.64 81.6605C871.785 87.5554 881.231 96.0426 887.978 107.122C894.725 118.202 898.099 131.483 898.099 146.966C898.099 162.591 894.619 175.766 887.659 186.49C880.77 197.214 871.075 205.311 858.575 210.78C846.146 216.249 831.622 218.983 815.002 218.983H758.752V172.96H803.071C810.031 172.96 815.961 172.108 820.862 170.403C825.833 168.628 829.633 165.822 832.261 161.987C834.96 158.152 836.309 153.145 836.309 146.966C836.309 140.716 834.96 135.638 832.261 131.732C829.633 127.754 825.833 124.842 820.862 122.996C815.961 121.078 810.031 120.119 803.071 120.119H782.19V291H722.957ZM850.798 190.858L905.343 291H840.997L787.73 190.858H850.798ZM908.348 291V72.8182H1065.59V120.545H967.581V158.045H1057.5V205.773H967.581V243.273H1065.17V291H908.348Z" fill="#1E1E1E"/>
<path d="M197.565 84.0455V74.8182H234.227V84.0455H221.54V117H210.253V84.0455H197.565ZM235.637 117V74.8182H247.089V91.2955H262.248V74.8182H273.7V117H262.248V100.523H247.089V117H235.637ZM276.237 117V74.8182H306.638V84.0455H287.689V91.2955H305.072V100.523H287.689V107.773H306.555V117H276.237Z" fill="#FF503F"/>
</svg>
