<svg width="148" height="44" viewBox="0 0 148 44" fill="none" xmlns="http://www.w3.org/2000/svg">
<rect width="148" height="44" fill="#FF503F"/>
<path d="M26.7674 17C26.8441 16.1562 26.6396 15.4957 26.1538 15.0185C25.668 14.5327 24.8498 14.2898 23.6992 14.2898C22.9663 14.2898 22.3526 14.375 21.8583 14.5455C21.3725 14.7159 20.9933 14.9503 20.7205 15.2486C20.4563 15.5469 20.2901 15.892 20.2219 16.2841C20.1452 16.5909 20.1495 16.8722 20.2347 17.1278C20.3285 17.375 20.5032 17.6009 20.7589 17.8054C21.0231 18.0099 21.3683 18.1932 21.7944 18.3551C22.229 18.517 22.7447 18.6619 23.3413 18.7898L25.3867 19.25C26.7844 19.5568 27.9563 19.9616 28.9023 20.4645C29.8569 20.9588 30.6069 21.5469 31.1523 22.2287C31.6978 22.9105 32.0558 23.6733 32.2262 24.517C32.4052 25.3608 32.4094 26.2812 32.239 27.2784C31.9492 29 31.2802 30.4574 30.2319 31.6506C29.1836 32.8438 27.8157 33.7514 26.1282 34.3736C24.4407 34.9957 22.489 35.3068 20.2731 35.3068C18.006 35.3068 16.0799 34.9702 14.4947 34.2969C12.918 33.6151 11.7759 32.5753 11.0685 31.1776C10.3697 29.7713 10.1992 27.9773 10.5572 25.7955H17.3072C17.2049 26.5966 17.2901 27.2699 17.5629 27.8153C17.8356 28.3608 18.2745 28.7741 18.8796 29.0554C19.4847 29.3366 20.239 29.4773 21.1424 29.4773C21.9094 29.4773 22.5657 29.3835 23.1112 29.196C23.6566 29.0085 24.087 28.7486 24.4023 28.4162C24.7177 28.0838 24.9094 27.7045 24.9776 27.2784C25.0458 26.8864 24.9776 26.5369 24.7731 26.2301C24.5685 25.9233 24.1978 25.6463 23.6609 25.3991C23.1239 25.152 22.3867 24.9261 21.4492 24.7216L18.9435 24.1591C16.7191 23.6477 15.0401 22.804 13.9066 21.6278C12.7731 20.4517 12.3725 18.8409 12.7049 16.7955C12.9776 15.125 13.6637 13.6676 14.7631 12.4233C15.8711 11.1705 17.2773 10.1989 18.9819 9.50852C20.695 8.80966 22.5913 8.46023 24.6708 8.46023C26.7844 8.46023 28.5529 8.81392 29.9762 9.52131C31.408 10.2287 32.435 11.2216 33.0572 12.5C33.6879 13.7784 33.8583 15.2784 33.5685 17H26.7674ZM31.8502 35L34.9894 16.0909H43.1514C44.5548 16.0909 45.7366 16.3679 46.6968 16.9219C47.657 17.4759 48.3464 18.2545 48.765 19.2578C49.1835 20.2611 49.282 21.4337 49.0604 22.7756C48.8389 24.142 48.3464 25.3208 47.5832 26.3118C46.8261 27.2966 45.8597 28.0568 44.684 28.5923C43.5145 29.1217 42.2034 29.3864 40.7508 29.3864H35.8758L36.5406 25.3977H40.3815C40.997 25.3977 41.5387 25.2931 42.0065 25.0838C42.4743 24.8684 42.8528 24.5668 43.1421 24.179C43.4314 23.785 43.6192 23.3172 43.7053 22.7756C43.7915 22.2339 43.7515 21.7723 43.5853 21.3906C43.4253 21.0028 43.1483 20.7074 42.7543 20.5043C42.3665 20.295 41.871 20.1903 41.2678 20.1903H39.4582L36.9837 35H31.8502ZM47.6269 35L51.9735 8.81818H59.0815L57.394 19.0455H66.8031L68.4906 8.81818H75.5985L71.2519 35H64.144L65.8315 24.7727H56.4224L54.7349 35H47.6269ZM72.8269 35L77.1735 8.81818H96.0428L95.0712 14.5455H83.3099L82.594 19.0455H93.3837L92.4121 24.7727H81.6224L80.9065 29.2727H92.6167L91.6451 35H72.8269ZM93.4215 35L97.768 8.81818H109.069C111.012 8.81818 112.653 9.17187 113.991 9.87926C115.329 10.5866 116.292 11.6051 116.88 12.9347C117.468 14.2642 117.609 15.858 117.302 17.7159C116.995 19.5909 116.318 21.1719 115.269 22.4588C114.23 23.7372 112.904 24.7088 111.294 25.3736C109.691 26.0298 107.893 26.358 105.899 26.358H99.1487L100.069 20.8352H105.387C106.223 20.8352 106.956 20.733 107.586 20.5284C108.217 20.3153 108.728 19.983 109.12 19.5312C109.512 19.071 109.768 18.4659 109.887 17.7159C110.007 16.9659 109.947 16.3565 109.708 15.8878C109.47 15.4105 109.073 15.0611 108.519 14.8395C107.965 14.6094 107.279 14.4943 106.461 14.4943H103.956L100.529 35H93.4215ZM110.757 22.983L115.308 35H107.586L103.188 22.983H110.757ZM116.02 35L120.366 8.81818H139.236L138.264 14.5455H126.503L125.787 19.0455H136.577L135.605 24.7727H124.815L124.099 29.2727H135.81L134.838 35H116.02Z" fill="white"/>
<path d="M34.7679 10.4545L34.9838 9.18182H40.0406L39.8247 10.4545H38.0747L37.3247 15H35.7679L36.5179 10.4545H34.7679ZM39.2692 15L40.2351 9.18182H41.8146L41.4396 11.4545H43.5305L43.9055 9.18182H45.4851L44.5192 15H42.9396L43.3146 12.7273H41.2237L40.8487 15H39.2692ZM44.8692 15L45.8351 9.18182H50.0283L49.8124 10.4545H47.1987L47.0396 11.4545H49.4374L49.2214 12.7273H46.8237L46.6646 13.7273H49.2669L49.051 15H44.8692Z" fill="white"/>
</svg>
